<svg xmlns="http://www.w3.org/2000/svg" viewBox="0 0 854.19 791.24"><defs><style>.cls-1{fill:#9e8149;}.cls-2{fill:#6f70b4;}.cls-3{fill:#cfab5d;}</style></defs><title>logo_2</title><g id="Layer_2" data-name="Layer 2"><g id="Layer_1-2" data-name="Layer 1"><path class="cls-1" d="M671,580.83c-97.46,72-177,52.54-250.22.52-85.86,60.33-168.67,61.72-248.12-2.09-25.87,23.56-55.72,37.32-88.47,44L127.65,757a49,49,0,0,0,46.55,33.86l492.89.42a49,49,0,0,0,46.57-33.67l44.25-134.34C718.54,618.67,671,580.83,671,580.83Z"/><path class="cls-2" d="M753,199.64a276.46,276.46,0,0,0-217.23.38"/><path d="M535.8,210a10,10,0,0,1-4-19.18,286.45,286.45,0,0,1,225.11-.4,10,10,0,0,1-7.85,18.39,266.45,266.45,0,0,0-209.34.38A10,10,0,0,1,535.8,210Z"/><path class="cls-2" d="M796.58,137.84a315.41,315.41,0,0,0-304.88.79"/><path d="M491.71,148.63a10,10,0,0,1-4.88-18.74,325.43,325.43,0,0,1,314.57-.81,10,10,0,0,1-9.64,17.52,305.43,305.43,0,0,0-295.19.76A9.94,9.94,0,0,1,491.71,148.63Z"/><path class="cls-2" d="M844.19,70.29a359.75,359.75,0,0,0-400.64,1.29"/><path d="M443.56,81.58A10,10,0,0,1,438,63.3,369.74,369.74,0,0,1,849.74,62a10,10,0,0,1-11.1,16.64,349.72,349.72,0,0,0-389.48,1.26A10,10,0,0,1,443.56,81.58Z"/><path class="cls-3" d="M798.93,487.57c-6.48.21-19.24,1.48-25.28-4.65-32.16-39.27-64.71-71.64-97.3-98V245.12c0-47.87-64.3-47.87-64.3,0V340.5c-236-136.27-461.76,17.4-543,140.38-6.12,9.27-17.91,3.7-30.74,6.25-54,10.73-50.54,90.39,7.94,92.42,41.29,1.43,75.27-23.36,94.25-36.07a51.67,51.67,0,0,1,59.2.34c76.28,59.74,156.2,34.73,191.54-1,19.58-19.79,44.79-10,58.18.34,49.45,38.39,126,57.88,198.93-4.88,14.09-12.13,41.52-3.4,50.55,4.08,13.64,11.29,51.12,43.78,103.67,37.21,19-2.37,35.8-20.4,38.11-38.11C845.78,499.94,811.72,487.15,798.93,487.57ZM336.62,391.16l-41.08,71.16a19.5,19.5,0,1,1-33.78-19.5l41.08-71.16a19.5,19.5,0,0,1,33.78,19.5ZM440.55,472a19.5,19.5,0,0,1-39,0V389.78a19.5,19.5,0,0,1,39,0Zm134.28-2.49a19.51,19.51,0,0,1-26.64-7.14l-41.08-71.16a19.5,19.5,0,0,1,33.78-19.5L582,442.82A19.51,19.51,0,0,1,574.83,469.46Z"/></g></g></svg>